<svg xmlns="http://www.w3.org/2000/svg" viewBox="0 0 32 32"><title>31-Security</title><g id="_31-Security" data-name="31-Security"><path d="M25,0H7A7,7,0,0,0,0,7V25a7,7,0,0,0,7,7H25a7,7,0,0,0,7-7V7A7,7,0,0,0,25,0Zm5,25a5,5,0,0,1-5,5H7a5,5,0,0,1-5-5V7A5,5,0,0,1,7,2H25a5,5,0,0,1,5,5Z"/><path d="M21,11H20V9a1.89,1.89,0,0,0-1.86-2H13.86A1.9,1.9,0,0,0,12,9v2H11a3,3,0,0,0-3,3v8a3,3,0,0,0,3,3H21a3,3,0,0,0,3-3V14A3,3,0,0,0,21,11ZM14,9h4v2H14Zm8,13a1,1,0,0,1-1,1H11a1,1,0,0,1-1-1V14a1,1,0,0,1,1-1H21a1,1,0,0,1,1,1Z"/><path d="M16,15a2,2,0,0,0-1,3.72V21a2,2,0,0,0,2-2v-.28A2,2,0,0,0,16,15Z"/></g></svg>